<svg width="130" height="40" viewBox="0 0 149 44" fill="none" xmlns="http://www.w3.org/2000/svg">
<g id="NSC-logo-png (1) 1" clip-path="url(#clip0_151_65)">
<g id="Group">
<path id="Vector" d="M23.2584 0.10511C21.0785 0.36898 20.2643 0.500912 19.089 0.797764C16.6923 1.40466 14.4401 2.39417 12.49 3.70691C11.2622 4.5249 10.6252 5.04604 9.54184 6.10151C5.70723 9.84844 3.97378 13.8263 2.15497 23.0221C1.761 25.0143 0.887709 30.2454 0.677594 31.8616C0.283627 34.8895 0.0866442 38.3924 0.0800781 42.2514V43.9072L4.5319 43.8808C7.19774 43.861 8.99028 43.828 9.01655 43.7885C9.03625 43.7555 9.07564 43.2014 9.10191 42.5615C9.22666 39.2631 9.5681 34.2035 9.83074 31.7297C10.054 29.6847 10.8485 24.7504 11.249 22.8967C11.8925 19.948 12.8183 17.2565 13.7704 15.5612C15.6746 12.1639 18.9248 9.76928 22.4705 9.13599C23.3241 8.98427 24.9065 8.9381 25.8258 9.03045C28.183 9.27452 30.2185 9.98697 32.0176 11.2008C35.8128 13.7603 38.0716 17.4017 39.0762 22.5801C39.4373 24.4403 39.457 24.5855 40.2909 32.2904C40.4551 33.7747 40.6192 35.4107 40.6586 35.9186C40.7571 37.2643 40.8556 39.9558 40.8556 41.3345C40.8556 41.9876 40.8753 42.8451 40.9016 43.2277L40.9409 43.9336H45.6685H50.3961L50.3567 41.9348C50.3239 40.0349 50.1269 35.7537 49.9825 33.7087C49.4244 25.8322 47.3692 16.6628 45.1827 12.2628C42.0638 5.98277 36.2265 1.61576 29.3649 0.428349C27.9072 0.177673 27.2638 0.124901 25.3924 0.0985146C24.3484 0.0853195 23.3832 0.0919189 23.2584 0.10511Z" fill="white"/>
<path id="Vector_2" d="M143.713 0.659107C142.629 0.685493 141.461 0.725075 141.119 0.751461C139.241 0.883396 138.604 0.942764 137.442 1.06151C132.951 1.52328 128.959 2.35446 125.164 3.62762C122.005 4.68309 119.747 5.94307 117.645 7.82972C115.072 10.1452 113.266 13.4765 112.491 17.3488C112.156 19.0243 112.077 19.8555 112.071 21.7686C112.064 23.5497 112.123 24.2687 112.366 25.7925C113.187 30.8126 115.866 34.7443 120.305 37.4357C124.881 40.2129 130.607 41.7698 138.526 42.3832C141.677 42.6273 147.58 42.9308 147.771 42.8582C147.876 42.8186 147.882 42.5416 147.882 38.9925V35.1731L146.917 35.1269C144.731 35.0279 135.597 34.0252 131.598 33.4447C127.252 32.818 125.315 32.099 123.259 30.3707C122.524 29.7506 121.946 29.0777 121.283 28.075C119.753 25.7596 119.031 23.266 119.254 21.0759C119.596 17.7446 121.231 14.8948 123.988 12.83C126.24 11.1413 128.775 10.1913 132.353 9.70319C133.45 9.55146 139.241 8.91158 142.826 8.54217C147.18 8.09359 147.889 8.00783 147.955 7.90888C148.02 7.80993 148.04 0.863605 147.974 0.698689C147.928 0.579948 147.396 0.573349 143.713 0.659107Z" fill="white"/>
<path id="Vector_3" d="M66.7918 8.63495C66.7393 8.66794 65.9382 8.96479 65.019 9.30122C62.2612 10.3039 61.25 10.7789 59.7661 11.775C58.2559 12.7843 57.0805 13.9651 56.0562 15.5021C55.091 16.9468 54.4147 18.5366 54.0995 20.0802C53.9748 20.7135 53.9551 21.017 53.9551 22.3297C53.9551 23.9129 53.9879 24.2559 54.2965 25.5291C55.3799 30.0742 58.8534 34.3225 62.8259 35.9585C63.4825 36.229 64.5856 36.5456 65.3144 36.6709C66.1286 36.8161 67.5207 36.8754 68.5253 36.8029C70.4032 36.6775 71.8411 36.2883 73.5877 35.4242C75.4131 34.527 76.7263 33.5573 78.3876 31.8949C79.622 30.6613 80.2392 29.9753 82.7868 27.0068C85.2097 24.1834 86.0962 23.1741 87.2124 21.9867C88.263 20.8718 89.8782 19.3348 90.397 18.9456C91.5526 18.088 93.03 17.6856 94.2381 17.8967C95.3018 18.0814 96.0766 18.4904 96.8974 19.2952C97.7904 20.1726 98.3485 21.0895 98.6703 22.1978C98.9657 23.2203 98.992 24.6583 98.7425 25.6083C98.3091 27.2245 96.9368 28.5174 93.877 30.1798C92.0057 31.2023 92.137 31.1165 92.137 31.3474C92.137 31.4595 92.4128 32.4029 92.7542 33.4386C93.0956 34.4742 93.5815 35.9849 93.8442 36.7897C94.2644 38.1222 94.3235 38.2607 94.4548 38.2607C94.5861 38.2607 97.1666 37.1195 99.0314 36.2356C102.636 34.5336 104.869 32.5612 106.123 29.9819C106.97 28.2601 107.298 26.578 107.213 24.4736C107.127 22.2176 106.589 20.1462 105.538 17.9759C104.068 14.9546 101.914 12.7777 98.9986 11.3726C97.1732 10.4886 95.1443 10.1258 93.0168 10.2907C88.6569 10.6272 85.0259 12.4413 81.5655 16.0035C80.4427 17.1579 79.9109 17.7912 78.2037 20.0275C75.6561 23.3654 73.0099 26.1822 71.0401 27.6796C69.2081 29.0649 67.3565 29.3948 65.7675 28.6164C65.1766 28.3261 64.3952 27.673 63.9356 27.0793C61.9132 24.4802 61.7228 21.5447 63.4365 19.381C64.2836 18.3057 65.1962 17.6724 67.7964 16.3531C68.801 15.8451 69.6415 15.3834 69.6612 15.3372C69.6809 15.2844 69.6284 15.0865 69.5561 14.8952C69.4774 14.7039 68.9061 13.2065 68.2823 11.5771C67.1004 8.48983 67.0873 8.46344 66.7918 8.63495Z" fill="white"/>
</g>
</g>
<defs>
<clipPath id="clip0_151_65">
<rect width="148" height="44" fill="white" transform="translate(0.0136719)"/>
</clipPath>
</defs>
</svg>
